<?xml version="1.0" standalone="no"?>
<!DOCTYPE svg PUBLIC "-//W3C//DTD SVG 20010904//EN"
 "http://www.w3.org/TR/2001/REC-SVG-20010904/DTD/svg10.dtd">
<svg version="1.0" xmlns="http://www.w3.org/2000/svg"
 width="449.000000pt" height="449.000000pt" viewBox="0 0 449.000000 449.000000"
 preserveAspectRatio="xMidYMid meet">
<metadata>
Created by potrace 1.14, written by Peter Selinger 2001-2017
</metadata>
<g transform="translate(0.000000,449.000000) scale(0.100000,-0.100000)"
fill="#000000" stroke="none">
<path d="M1816 4328 c-46 -49 -48 -53 -42 -95 3 -24 13 -54 22 -68 9 -14 13
-25 9 -25 -4 0 -2 -7 5 -15 6 -8 9 -19 6 -24 -4 -5 -2 -12 3 -16 5 -3 10 -13
10 -23 0 -9 3 -30 7 -45 4 -19 1 -33 -10 -46 -9 -10 -13 -21 -9 -24 3 -4 1 -7
-4 -7 -12 0 -12 -18 0 -37 5 -7 6 -17 3 -21 -3 -5 5 -15 18 -21 12 -7 30 -26
40 -42 16 -27 56 -41 56 -20 0 5 9 13 20 16 11 3 20 13 20 21 0 8 11 19 25 26
13 6 22 14 20 19 -3 4 7 17 21 28 21 16 41 21 88 21 37 0 70 6 81 14 11 8 25
12 32 9 7 -3 13 0 13 7 0 6 5 8 10 5 6 -3 10 1 10 9 0 9 5 16 11 16 5 0 8 4 4
9 -3 5 -1 12 4 16 12 7 11 134 -1 141 -4 3 -5 16 -2 30 4 14 2 24 -4 24 -6 0
-9 11 -7 25 1 14 -1 25 -6 25 -4 0 -11 10 -15 23 -9 28 -54 71 -79 75 -11 2
-24 8 -29 13 -6 5 -71 9 -146 9 l-135 0 -49 -52z"/>
<path d="M1822 3751 c-3 -9 -13 -23 -22 -31 -16 -15 -46 -97 -41 -114 1 -4 -4
-18 -12 -30 -8 -12 -14 -44 -13 -78 1 -32 -2 -58 -6 -58 -4 0 -7 -46 -7 -102
0 -57 -3 -129 -7 -160 -5 -45 -3 -63 10 -83 9 -14 13 -25 9 -26 -5 0 3 -4 15
-10 13 -5 26 -18 29 -29 3 -11 9 -17 14 -14 5 3 9 1 9 -4 0 -7 -44 -56 -194
-214 -15 -15 -26 -31 -26 -36 0 -5 -11 -15 -25 -22 -14 -7 -23 -15 -21 -18 3
-2 -11 -19 -29 -38 -19 -19 -33 -34 -31 -34 2 0 -11 -16 -30 -35 -18 -19 -37
-35 -43 -35 -6 0 -11 -6 -11 -13 0 -19 -34 -57 -50 -57 -7 0 -10 -3 -7 -6 4
-4 -4 -16 -17 -28 -43 -37 -37 -66 23 -124 49 -47 84 -64 93 -44 4 10 113 82
124 82 5 0 15 9 22 20 7 11 18 20 26 20 7 0 25 11 40 25 48 44 27 8 -29 -50
-30 -32 -55 -62 -55 -66 0 -5 -3 -8 -7 -7 -5 2 -29 -12 -54 -29 -26 -18 -50
-29 -53 -25 -4 3 -10 2 -14 -4 -4 -6 -28 -23 -54 -38 -25 -15 -51 -33 -58 -41
-6 -7 -25 -17 -41 -20 -16 -4 -35 -14 -41 -23 -7 -9 -22 -19 -33 -20 -10 -2
-32 -15 -48 -28 -26 -22 -40 -28 -59 -25 -4 0 -10 -8 -13 -19 -4 -11 -14 -20
-24 -20 -9 0 -32 -13 -51 -30 -19 -16 -40 -29 -46 -30 -5 0 -20 -9 -31 -20
-12 -11 -28 -21 -35 -22 -7 -2 -44 -27 -82 -55 -37 -29 -75 -53 -83 -53 -8 0
-11 -4 -8 -10 3 -5 0 -10 -7 -10 -7 0 -19 -9 -26 -20 -7 -11 -18 -20 -25 -20
-7 0 -23 -11 -35 -25 -12 -14 -26 -25 -32 -25 -5 0 -10 -6 -10 -14 0 -8 -9
-18 -20 -21 -11 -3 -20 -12 -20 -18 0 -7 -9 -23 -20 -37 -20 -25 -29 -110 -12
-110 5 0 9 -6 10 -12 6 -44 9 -58 15 -64 4 -4 7 -15 7 -24 0 -14 8 -17 38 -15
20 2 44 5 52 8 8 3 48 13 89 22 41 9 83 21 95 28 12 6 23 12 26 12 18 3 106
41 112 49 3 5 14 10 25 11 10 0 37 14 60 29 23 15 48 28 55 30 8 1 26 10 40
21 14 11 39 28 55 37 15 10 35 22 43 27 8 5 32 17 52 27 20 10 34 23 31 28 -4
6 -3 8 2 4 5 -5 23 4 42 18 18 14 39 23 46 21 7 -3 4 -6 -6 -6 -10 -1 -22 -12
-27 -26 -5 -14 -20 -30 -32 -35 -13 -5 -19 -9 -14 -9 4 -1 -19 -28 -53 -60
-33 -32 -61 -63 -61 -69 0 -6 -9 -14 -20 -17 -11 -3 -20 -13 -20 -21 0 -8 -11
-20 -25 -26 -14 -6 -25 -15 -25 -20 0 -5 -25 -34 -55 -65 -30 -31 -55 -60 -55
-64 0 -4 -9 -11 -20 -14 -11 -3 -20 -13 -20 -20 0 -8 -12 -21 -27 -29 -16 -8
-24 -15 -18 -16 5 0 -15 -24 -45 -54 -30 -29 -70 -71 -89 -92 -19 -21 -42 -43
-52 -49 -10 -5 -19 -14 -20 -20 -3 -17 -113 -125 -127 -125 -7 0 -11 -3 -8 -8
6 -9 -15 -37 -33 -43 -10 -4 -13 -26 -13 -93 1 -83 2 -88 29 -109 15 -12 36
-32 47 -44 18 -21 29 -23 111 -23 61 0 97 5 110 14 11 7 23 14 28 15 4 0 8 1
10 2 1 0 9 2 19 4 21 4 78 46 78 57 0 5 4 7 8 4 16 -10 232 223 225 243 -1 3
5 10 13 14 8 4 14 15 14 22 0 8 5 15 10 15 6 0 10 7 10 15 0 8 7 15 15 15 13
0 15 -28 15 -194 0 -107 -4 -197 -8 -200 -5 -3 -8 -21 -7 -41 1 -19 -1 -38 -5
-40 -5 -3 -7 -23 -5 -45 2 -27 -1 -40 -9 -40 -9 0 -15 -28 -19 -91 -4 -50 -10
-96 -14 -102 -4 -7 -7 -29 -6 -50 2 -25 -2 -37 -11 -37 -8 0 -13 -11 -13 -25
0 -22 4 -25 34 -25 34 0 63 -18 63 -39 0 -7 25 -11 65 -11 36 0 65 4 65 10 0
5 20 30 45 54 l44 45 4 233 c2 128 7 274 10 323 4 50 8 101 9 115 1 14 8 30
16 36 9 6 13 18 9 28 -4 9 -2 16 3 16 4 0 11 13 15 29 4 20 16 34 35 43 24 10
30 20 34 53 3 22 8 56 11 75 3 19 7 56 9 83 2 26 4 49 6 52 1 3 3 17 4 33 1
15 4 32 8 38 4 6 6 21 3 33 -2 13 2 24 9 27 8 3 17 25 21 49 3 25 10 47 16 50
5 4 7 11 4 16 -4 5 1 12 10 15 8 4 15 11 14 18 -1 6 3 24 9 39 7 16 12 33 12
38 0 5 7 12 15 15 8 4 12 10 9 15 -3 5 -1 9 5 9 6 0 8 7 5 15 -4 8 -1 15 5 15
6 0 11 4 11 9 0 15 60 101 71 101 5 0 11 11 15 25 3 13 15 27 25 30 11 4 17
11 14 16 -4 5 -1 9 4 9 6 0 11 6 11 13 0 8 11 19 25 25 14 6 25 16 25 22 0 15
25 40 39 40 6 0 10 5 9 12 -2 6 10 18 25 26 16 7 31 20 34 28 3 8 11 14 19 14
7 0 20 12 28 28 8 15 18 26 23 24 4 -2 17 4 28 12 66 53 117 86 130 86 8 0 15
5 15 10 0 6 4 10 10 10 9 0 72 39 97 60 29 24 33 8 32 -135 0 -107 -3 -145
-12 -145 -7 0 -13 -14 -14 -32 -1 -18 -4 -44 -7 -58 -3 -14 -10 -56 -17 -95
-7 -38 -18 -78 -26 -87 -8 -9 -12 -22 -8 -27 3 -6 3 -17 -2 -23 -4 -7 -8 -20
-9 -28 0 -8 -4 -23 -8 -32 -4 -9 -5 -22 -1 -28 3 -5 -1 -13 -9 -16 -9 -3 -16
-17 -16 -30 0 -14 -7 -41 -15 -61 -8 -20 -13 -38 -10 -41 3 -3 -2 -13 -11 -23
-9 -10 -14 -25 -11 -34 4 -8 3 -15 -2 -15 -5 0 -11 -18 -15 -39 -3 -22 -11
-41 -17 -43 -5 -2 -12 -15 -14 -28 -7 -45 -37 -145 -46 -156 -6 -7 -12 -23
-15 -35 -3 -13 -6 -28 -7 -34 -2 -5 -6 -16 -10 -22 -5 -7 -5 -17 -2 -23 3 -5
-1 -10 -9 -10 -10 0 -16 -9 -16 -25 0 -14 -3 -25 -7 -25 -5 0 -9 -12 -9 -26
-1 -14 -12 -35 -23 -46 -21 -18 -24 -19 -46 -4 -14 9 -25 20 -25 25 0 4 -11 7
-25 7 -28 -2 -85 -49 -85 -71 0 -7 -6 -15 -13 -18 -20 -7 -37 -121 -37 -246
l0 -112 35 -35 c19 -19 35 -39 35 -45 0 -6 4 -8 9 -4 5 3 12 2 15 -3 3 -5 36
-8 74 -7 72 1 115 21 128 58 3 10 8 16 12 13 5 -5 21 17 38 54 4 8 14 19 21
23 7 5 11 12 8 18 -4 5 -2 9 4 9 5 0 17 18 27 40 10 22 21 40 25 40 4 0 16 20
28 45 12 25 26 45 32 45 5 0 7 4 4 10 -6 9 21 67 36 80 3 3 12 23 19 45 7 22
17 45 22 52 5 7 7 17 3 23 -3 5 0 10 8 10 10 0 19 19 27 51 7 28 19 53 27 56
8 3 12 12 9 19 -3 8 -1 14 5 14 6 0 9 7 5 15 -3 8 -1 15 4 15 6 0 10 9 10 20
0 11 7 20 16 20 8 0 13 4 10 8 -3 5 0 26 6 48 7 21 12 43 12 47 1 4 6 11 13
15 6 4 17 30 24 57 7 28 18 54 26 58 8 5 11 16 8 28 -4 10 -2 19 3 19 5 0 15
27 23 60 7 33 18 60 24 60 7 0 12 6 13 13 10 94 23 144 42 165 10 11 16 23 12
26 -3 4 3 9 15 12 11 3 26 17 33 30 8 13 19 24 27 24 7 0 22 9 33 20 11 11 23
20 28 21 4 0 22 7 41 15 18 8 39 14 46 14 8 0 16 6 18 13 3 6 3 -17 0 -53 -3
-36 -11 -69 -17 -75 -7 -5 -12 -28 -11 -50 1 -22 -3 -45 -8 -52 -4 -6 -7 -20
-6 -30 1 -10 -1 -26 -6 -36 -4 -9 -5 -32 -3 -51 2 -23 -1 -37 -12 -44 -11 -6
-15 -22 -13 -51 1 -22 -2 -41 -7 -41 -4 0 -7 -8 -5 -17 2 -10 4 -23 4 -30 1
-7 9 -20 20 -30 19 -19 34 -73 20 -73 -5 0 -9 -18 -9 -39 0 -22 -5 -41 -12
-43 -7 -3 -11 -23 -10 -51 1 -26 -1 -47 -6 -47 -4 0 -9 -12 -10 -28 -4 -69
-10 -105 -19 -111 -14 -9 -29 -149 -21 -201 3 -25 7 -99 7 -165 1 -81 5 -125
13 -133 7 -7 13 -34 14 -60 1 -26 5 -58 9 -72 4 -14 9 -40 12 -57 3 -18 9 -30
14 -27 5 3 9 -2 9 -10 0 -8 5 -27 12 -43 6 -15 11 -31 10 -35 -1 -5 5 -8 13
-8 8 0 19 -9 25 -20 6 -11 15 -18 21 -15 5 4 9 1 9 -4 0 -7 61 -11 183 -11
l183 0 24 32 c27 37 36 68 19 68 -6 0 -9 9 -6 19 3 11 -1 22 -8 24 -6 3 -17
27 -22 54 -15 71 -17 76 -31 92 -7 7 -11 20 -8 27 3 8 1 14 -4 14 -20 0 -9 48
15 75 23 24 25 33 19 74 -3 25 -12 53 -18 61 -7 8 -11 25 -10 37 0 13 -2 23
-6 23 -4 0 -11 26 -15 57 -4 32 -11 63 -17 70 -5 7 -12 31 -14 55 -10 98 -12
113 -14 113 -4 0 -11 65 -15 159 -3 49 -10 95 -16 102 -7 9 -11 141 -10 421 0
496 -1 455 11 448 10 -6 144 58 172 82 9 8 21 12 26 9 6 -3 12 1 16 9 3 8 12
15 19 15 8 0 26 9 41 21 14 11 26 18 26 14 0 -3 21 10 46 29 26 20 50 33 55
31 4 -3 13 4 19 15 6 11 16 20 23 20 11 0 56 34 134 100 12 10 24 16 27 13 3
-4 6 1 6 9 0 9 11 26 25 39 29 28 37 109 10 109 -8 0 -15 5 -15 11 0 10 -67
78 -79 80 -32 4 -203 0 -229 -6 -18 -4 -42 -19 -53 -34 -12 -14 -22 -24 -23
-21 -3 6 -119 -72 -124 -82 -2 -5 -11 -8 -19 -8 -9 0 -32 -12 -52 -27 -43 -34
-70 -51 -93 -59 -10 -3 -18 -10 -18 -15 0 -5 -7 -9 -15 -9 -9 0 -18 -7 -21
-15 -4 -8 -12 -15 -20 -15 -7 0 -28 -13 -46 -28 -18 -15 -50 -36 -70 -47 -21
-11 -38 -24 -38 -29 0 -5 -3 -7 -6 -3 -7 6 -82 -41 -120 -75 l-21 -18 11 60
c6 34 16 64 21 68 6 4 10 14 10 22 -1 8 2 20 6 25 3 6 5 20 4 33 -1 13 2 25 7
28 4 3 8 16 8 29 0 13 4 26 9 29 5 4 12 29 16 56 4 28 11 50 16 50 5 0 7 11 5
26 -3 16 0 27 9 30 8 3 17 14 20 25 4 11 11 16 17 13 5 -4 23 3 39 15 15 11
33 21 38 21 14 0 61 45 61 59 0 6 5 11 11 11 5 0 7 5 4 10 -3 6 1 10 9 10 9 0
16 4 16 8 0 5 12 9 28 9 33 1 48 6 135 37 37 13 67 23 67 21 0 -2 24 7 54 20
29 13 70 27 90 30 20 4 40 14 45 22 4 8 22 16 40 17 17 0 31 4 31 8 0 5 6 8
14 8 7 0 25 11 41 26 15 14 30 23 32 20 3 -3 14 5 24 18 16 21 19 42 19 144 0
117 -1 121 -27 150 -16 16 -35 43 -43 58 -14 26 -21 29 -60 27 -91 -4 -201
-27 -235 -49 -13 -9 -28 -14 -32 -11 -4 2 -21 -4 -38 -14 -16 -10 -48 -27 -70
-39 -22 -12 -44 -28 -48 -36 -4 -8 -16 -14 -27 -14 -10 0 -21 -9 -25 -19 -3
-11 -15 -23 -26 -26 -11 -4 -64 -51 -119 -105 l-100 -99 -65 30 c-35 16 -71
29 -79 29 -7 0 -19 7 -26 15 -7 8 -16 13 -20 10 -5 -3 -11 -1 -14 4 -14 21
-68 1 -106 -39 -31 -33 -40 -52 -49 -103 -6 -35 -11 -87 -11 -116 0 -37 -6
-61 -21 -82 -11 -16 -17 -29 -12 -29 4 0 -3 -7 -15 -16 -12 -8 -22 -20 -22
-25 0 -12 -80 -89 -92 -89 -4 0 -7 -3 -5 -8 1 -4 -8 -17 -21 -30 -12 -12 -22
-20 -22 -17 0 5 -34 -21 -59 -46 -9 -9 -47 -42 -86 -73 -38 -31 -75 -60 -81
-65 -7 -6 -14 -8 -17 -5 -2 3 -12 -7 -21 -21 -9 -14 -23 -25 -31 -25 -7 0 -20
-8 -27 -19 -7 -10 -23 -21 -35 -25 -13 -4 -23 -11 -23 -16 0 -5 -18 -19 -40
-31 -22 -13 -40 -26 -40 -30 0 -4 -9 -11 -21 -14 -12 -4 -29 -14 -39 -23 -31
-29 -44 -38 -62 -45 -21 -7 -21 -6 -9 26 10 26 21 77 25 117 1 14 5 32 9 40 3
8 5 26 4 40 -1 14 3 24 9 23 12 -2 29 84 24 126 -1 14 -13 40 -27 58 -14 18
-22 33 -17 33 5 0 -2 7 -14 16 -30 21 -28 29 11 31 42 2 90 12 97 21 3 4 19
14 35 22 17 8 44 25 62 38 45 33 143 133 143 146 0 6 9 17 20 24 18 11 20 23
20 105 -1 63 -5 98 -15 110 -7 11 -11 25 -8 33 3 8 0 14 -6 14 -6 0 -10 4 -9
8 5 15 -46 74 -72 85 -27 12 -36 14 -62 16 -10 0 -18 5 -18 10 0 7 75 21 122
22 9 0 22 7 28 15 7 7 16 11 21 8 5 -2 22 17 38 43 27 42 29 54 26 118 -3 82
-6 93 -25 120 -17 23 -71 61 -82 57 -5 -1 -8 2 -8 7 0 5 -26 15 -57 21 -32 7
-63 16 -69 21 -6 5 -14 6 -17 3 -3 -3 -12 -2 -19 2 -7 5 -25 9 -40 10 -16 1
-29 3 -30 4 -2 1 -29 3 -61 5 -47 2 -60 -1 -65 -14z"/>
</g>
</svg>
